<svg width="14" height="16" viewBox="0 0 14 16" fill="none" xmlns="http://www.w3.org/2000/svg">
<path d="M6.22222 9.90476V11.4286C4.98455 11.4286 3.79756 11.9102 2.92239 12.7675C2.04722 13.6248 1.55556 14.7876 1.55556 16H0C0 14.3834 0.655554 12.8331 1.82245 11.69C2.98934 10.5469 4.57199 9.90476 6.22222 9.90476ZM6.22222 9.14286C3.64389 9.14286 1.55556 7.09714 1.55556 4.57143C1.55556 2.04571 3.64389 0 6.22222 0C8.80056 0 10.8889 2.04571 10.8889 4.57143C10.8889 7.09714 8.80056 9.14286 6.22222 9.14286ZM6.22222 7.61905C7.94111 7.61905 9.33333 6.25524 9.33333 4.57143C9.33333 2.88762 7.94111 1.52381 6.22222 1.52381C4.50333 1.52381 3.11111 2.88762 3.11111 4.57143C3.11111 6.25524 4.50333 7.61905 6.22222 7.61905ZM13.2222 12.1905H14V16H7.77778V12.1905H8.55556V11.4286C8.55556 10.8224 8.80139 10.241 9.23897 9.81233C9.67656 9.38367 10.2701 9.14286 10.8889 9.14286C11.5077 9.14286 12.1012 9.38367 12.5388 9.81233C12.9764 10.241 13.2222 10.8224 13.2222 11.4286V12.1905ZM11.6667 12.1905V11.4286C11.6667 11.2265 11.5847 11.0327 11.4389 10.8898C11.293 10.7469 11.0952 10.6667 10.8889 10.6667C10.6826 10.6667 10.4848 10.7469 10.3389 10.8898C10.1931 11.0327 10.1111 11.2265 10.1111 11.4286V12.1905H11.6667Z" fill="#F5F5F5"/>
</svg>
